<?xml version="1.0" standalone="no"?>
<!DOCTYPE svg PUBLIC "-//W3C//DTD SVG 20010904//EN"
 "http://www.w3.org/TR/2001/REC-SVG-20010904/DTD/svg10.dtd">
<svg version="1.0" xmlns="http://www.w3.org/2000/svg"
 width="900.000000pt" height="900.000000pt" viewBox="0 0 900.000000 900.000000"
 preserveAspectRatio="xMidYMid meet">
<metadata>
Created by potrace 1.11, written by Peter Selinger 2001-2013
</metadata>
<g transform="translate(0.000000,900.000000) scale(0.100000,-0.100000)"
fill="#000000" stroke="none">
<path d="M5437 8364 c-4 -4 -104 -15 -137 -15 -8 0 -37 -5 -65 -10 -27 -4 -63
-10 -80 -13 -16 -2 -30 -5 -30 -6 0 -1 -12 -3 -26 -5 -14 -2 -56 -11 -93 -20
-37 -9 -75 -18 -84 -20 -9 -2 -18 -4 -19 -5 -2 -2 -7 -3 -12 -4 -5 0 -13 -4
-17 -8 -4 -5 -14 -8 -21 -8 -45 0 -378 -147 -450 -198 -18 -13 -33 -20 -33
-15 0 4 -4 3 -8 -2 -4 -6 -34 -28 -67 -49 -96 -62 -221 -163 -318 -255 -79
-75 -117 -118 -234 -256 -36 -42 -143 -197 -193 -280 -47 -76 -181 -335 -175
-335 3 0 -4 -16 -15 -35 -11 -20 -20 -41 -20 -48 0 -7 -9 -29 -20 -50 -11 -20
-18 -37 -15 -37 3 0 -2 -14 -11 -31 -8 -17 -17 -38 -19 -47 -2 -10 -15 -51
-28 -92 -20 -60 -44 -139 -52 -170 -16 -65 -19 -79 -29 -130 -2 -14 -11 -61
-20 -105 -8 -44 -19 -107 -23 -140 -11 -89 -8 -360 6 -435 6 -36 14 -83 17
-105 4 -22 10 -48 15 -57 6 -10 8 -18 5 -18 -3 0 9 -48 25 -107 17 -60 31
-115 32 -123 2 -8 18 -62 37 -120 18 -58 35 -108 36 -112 1 -5 2 -9 3 -10 2
-2 4 -12 6 -24 3 -11 11 -34 20 -50 8 -16 15 -36 15 -45 0 -9 3 -19 7 -23 4
-3 8 -12 9 -19 1 -7 13 -41 27 -77 14 -36 37 -96 52 -135 14 -38 32 -83 39
-100 7 -16 19 -46 26 -65 7 -19 17 -39 22 -45 4 -5 8 -17 8 -27 0 -10 5 -18
10 -18 6 0 10 -10 10 -23 0 -13 4 -27 9 -32 5 -6 23 -44 41 -85 17 -41 40 -93
50 -115 10 -22 37 -80 60 -130 64 -141 331 -677 352 -707 11 -16 16 -28 11
-28 -4 0 -3 -4 3 -8 6 -4 20 -25 31 -47 11 -22 31 -60 45 -85 38 -67 100 -182
112 -207 6 -13 14 -23 19 -23 4 0 7 -5 7 -11 0 -9 79 -151 110 -199 6 -8 15
-26 22 -40 7 -14 17 -32 24 -40 6 -8 23 -35 36 -60 42 -76 256 -425 285 -466
9 -12 22 -32 59 -94 52 -86 159 -245 166 -248 5 -2 8 -8 8 -14 0 -6 11 -26 25
-44 14 -18 25 -37 25 -42 0 -6 4 -12 8 -14 4 -1 40 -50 78 -108 138 -207 260
-380 444 -634 l94 -129 15 31 c8 18 18 32 23 32 4 0 8 4 8 10 0 5 29 54 63
107 104 160 147 227 287 448 73 116 152 240 176 277 24 37 44 72 44 77 0 5 4
11 8 13 4 2 19 21 32 43 13 22 48 77 77 122 29 45 53 87 53 92 0 6 3 11 8 11
4 0 21 23 37 51 17 28 39 66 50 83 11 18 45 71 75 119 30 48 62 99 70 112 8
14 72 117 143 230 70 113 127 209 127 215 0 5 5 10 10 10 6 0 14 8 17 18 10
26 167 287 176 290 4 2 7 8 7 13 0 4 23 46 50 93 28 47 50 89 50 95 0 6 3 11
8 11 4 0 13 15 21 33 8 17 17 34 20 37 4 3 28 48 54 100 56 113 79 154 90 158
4 2 7 8 7 13 0 17 81 98 114 114 16 9 68 18 115 20 47 3 113 12 146 20 33 9
71 18 84 21 13 3 34 10 45 16 12 7 26 13 31 14 6 1 37 17 70 36 56 32 142 121
166 173 5 11 18 34 29 50 11 17 25 41 32 55 7 14 15 27 18 30 5 5 12 18 105
190 53 98 329 653 408 820 80 170 117 252 117 261 0 5 4 9 8 9 11 0 35 87 27
99 -18 30 -37 8 -128 -144 -7 -11 -15 -22 -18 -25 -3 -3 -14 -21 -24 -40 -10
-18 -24 -40 -31 -48 -8 -7 -14 -18 -14 -23 0 -5 -5 -15 -10 -22 -6 -7 -25 -34
-42 -62 -17 -27 -44 -69 -60 -93 -15 -24 -28 -47 -28 -53 0 -5 -4 -9 -9 -9 -5
0 -11 -8 -14 -17 -3 -10 -35 -63 -72 -118 -36 -55 -74 -116 -85 -135 -11 -19
-38 -62 -60 -95 -21 -33 -58 -91 -82 -130 -23 -38 -46 -74 -50 -80 -4 -5 -23
-30 -41 -55 -34 -47 -67 -61 -93 -40 -32 28 -9 81 144 328 12 20 25 44 29 52
3 8 18 33 32 55 31 48 36 56 101 167 28 48 55 90 61 93 5 4 7 11 4 16 -4 5 -1
9 4 9 6 0 11 4 11 9 0 6 12 29 27 53 36 56 44 69 93 153 23 39 52 88 66 110
13 22 32 55 41 73 9 17 20 32 25 32 4 0 8 5 8 11 0 6 9 24 20 39 11 16 23 43
27 60 9 46 -13 36 -56 -26 -19 -27 -38 -50 -43 -52 -4 -2 -8 -8 -8 -13 0 -8
-75 -124 -90 -139 -3 -3 -32 -45 -66 -95 -34 -49 -75 -110 -93 -135 -17 -25
-52 -76 -78 -115 -26 -38 -51 -71 -55 -73 -4 -2 -8 -10 -8 -18 0 -8 -4 -14 -9
-14 -5 0 -14 -13 -21 -30 -7 -16 -15 -30 -19 -30 -3 0 -19 -21 -36 -48 -16
-26 -33 -51 -37 -57 -8 -10 -111 -158 -162 -232 -35 -52 -44 -60 -77 -68 -31
-8 -59 15 -59 50 0 13 85 150 203 326 197 296 219 328 264 400 12 19 26 39 30
44 5 6 24 35 43 65 19 30 38 57 42 58 5 2 8 8 8 13 0 6 5 15 11 22 26 29 179
272 179 284 0 35 -34 1 -140 -138 -63 -84 -119 -157 -125 -163 -5 -6 -23 -29
-40 -51 -16 -22 -35 -46 -42 -53 -7 -7 -13 -16 -13 -20 0 -4 -14 -23 -30 -42
-33 -38 -32 -38 -75 -95 -40 -54 -47 -63 -67 -86 -10 -10 -18 -21 -18 -24 0
-2 -39 -56 -87 -118 -49 -63 -98 -127 -110 -143 l-22 -29 13 45 c58 196 112
337 142 367 7 7 22 29 35 50 13 20 30 45 39 54 8 9 25 32 38 50 13 19 59 84
102 144 44 61 86 119 94 130 8 11 46 64 85 118 76 105 91 146 46 125 -14 -6
-25 -14 -25 -18 0 -3 -19 -27 -42 -51 -24 -25 -83 -90 -133 -144 -117 -128
-209 -223 -200 -207 3 7 8 27 10 45 2 18 7 46 10 62 4 17 8 46 10 65 2 19 5
35 5 35 4 0 10 87 11 155 0 72 -6 181 -15 245 -10 72 -19 131 -23 150 -3 11
-8 38 -13 61 -16 74 -59 238 -74 282 -8 23 -15 43 -15 45 1 8 -75 214 -102
277 -23 54 -138 285 -162 325 -7 11 -30 51 -52 88 -21 37 -43 67 -47 67 -4 0
-8 5 -8 11 0 6 -13 28 -30 49 -16 21 -30 41 -30 45 0 3 -6 12 -12 19 -7 7 -26
30 -43 51 -49 63 -139 167 -187 215 -62 63 -203 190 -212 190 -4 0 -19 11 -34
25 -31 29 -202 143 -247 165 -16 8 -32 18 -35 21 -27 32 -448 199 -515 204 -5
1 -20 4 -32 9 -20 6 -36 10 -93 21 -14 3 -34 7 -45 9 -45 9 -162 26 -195 29
-20 2 -41 7 -48 11 -7 4 -12 3 -12 -3 0 -7 -8 -7 -22 -2 -23 8 -413 13 -421 5z"/>
<path d="M17 7839 c-31 -18 -24 -34 53 -119 199 -218 208 -229 213 -243 4 -13
162 -21 337 -16 8 1 62 0 120 0 58 -1 158 0 223 1 64 2 117 0 117 -4 0 -4 7
-5 15 -2 22 9 145 10 145 2 0 -4 7 -5 15 -2 22 9 145 10 145 2 0 -4 7 -5 15
-2 23 9 145 10 145 1 0 -5 5 -5 11 -1 6 4 32 6 58 6 56 -1 250 -1 271 -1 8 1
62 0 120 0 58 -1 158 0 223 1 64 2 117 0 117 -4 0 -4 7 -5 15 -2 23 9 145 10
145 1 0 -4 8 -3 19 2 10 6 20 8 23 6 2 -2 19 -5 38 -5 32 -1 322 -2 345 -2 6
1 94 1 196 2 129 1 191 5 201 13 8 7 35 41 60 77 41 58 108 137 191 222 30 32
34 50 14 67 -19 15 -3564 15 -3590 0z"/>
<path d="M614 7202 c-19 -18 -19 -18 25 -60 21 -20 94 -91 162 -157 l123 -120
1048 -1 c577 0 1053 3 1059 6 6 4 12 13 13 21 2 8 9 28 16 44 7 17 15 39 17
49 2 11 10 27 18 36 8 9 15 21 15 27 0 6 13 40 29 76 19 41 26 69 20 78 -13
21 -2524 22 -2545 1z"/>
<path d="M1222 6585 c-10 -5 -18 -16 -17 -22 0 -7 84 -97 187 -200 l187 -188
621 1 c457 0 624 4 632 12 6 6 13 22 16 34 5 31 10 53 12 53 1 0 3 9 4 20 2
11 17 72 35 136 40 150 40 159 -1 160 -331 6 -1663 2 -1676 -6z"/>
<path d="M1891 5960 c-7 -4 -23 -5 -37 -2 -23 4 -29 -4 -25 -36 1 -7 21 -30
44 -50 51 -46 158 -145 209 -193 21 -20 38 -35 38 -34 0 2 15 -12 34 -31 l34
-34 314 0 c172 0 318 4 325 8 8 5 9 21 2 57 -6 28 -10 107 -11 177 -1 117 -3
128 -20 134 -34 10 -68 12 -74 2 -3 -4 -11 -5 -17 -1 -15 9 -236 10 -265 1
-13 -5 -21 -5 -19 0 3 4 -10 7 -29 7 -19 0 -34 -4 -34 -8 0 -5 -5 -5 -12 -1
-16 10 -108 11 -114 2 -3 -4 -15 -4 -27 0 -27 9 -239 8 -254 -1 -6 -4 -13 -3
-17 0 -10 10 -32 12 -45 3z"/>
</g>
</svg>
