<svg width="106" height="88" viewBox="0 0 106 88" fill="none" xmlns="http://www.w3.org/2000/svg">
<path d="M52.5 37C18.4491 37 12.0494 68.3333 13.106 84H56H74H91.894C92.9506 68.3333 86.5509 37 52.5 37Z" stroke="#417F56" stroke-width="7"/>
<path d="M4 84H102" stroke="#417F56" stroke-width="8" stroke-linecap="round"/>
<circle cx="53" cy="31" r="6" fill="#417F56"/>
<path d="M95.052 20.5887C95.8367 25.5515 91.6052 26.549 92.1937 30.2714C92.7822 33.9938 95.4672 35.5062 96.1866 40.0557C96.9059 44.6052 93.2719 44.185 94.3182 50.8024" stroke="#417F56" stroke-width="4" stroke-linecap="round"/>
<path d="M8.92634 21C8.43176 26.0001 11.7878 28.2497 11.4168 32C11.0459 35.7503 8.45339 35.4164 8 40C7.54661 44.5836 12.0763 44.4528 11.4168 51.1198" stroke="#417F56" stroke-width="4" stroke-linecap="round"/>
<path d="M82.025 3.31742C82.8097 8.28029 78.5782 9.27781 79.1667 13.0002C79.7553 16.7225 82.9934 17.7018 83.7127 22.2513C84.432 26.8008 80.2449 26.9138 81.2912 33.5311" stroke="#417F56" stroke-width="4" stroke-linecap="round"/>
<path d="M20.9263 2.99997C20.4318 8.00008 24.371 9.74971 24 13.5C23.629 17.2503 20.4534 17.9164 20 22.5C19.5466 27.0836 24.0763 26.4528 23.4168 33.1198" stroke="#417F56" stroke-width="4" stroke-linecap="round"/>
</svg>
