<svg width="87" height="91" viewBox="0 0 87 91" fill="none" xmlns="http://www.w3.org/2000/svg">
<path d="M45.5 85.5L37 22H83.5L75.5 85.5H45.5Z" fill="white" stroke="#417F56" stroke-width="6" stroke-linejoin="round"/>
<path d="M70 4L67 19" stroke="#417F56" stroke-width="7" stroke-linecap="round"/>
<path d="M80 43H40L43 62.5H78L80 43Z" fill="#417F56"/>
<path d="M29.0543 39C9.5413 39 3.55435 56.3333 3 65H54C53.8152 56.3333 48.5674 39 29.0543 39Z" fill="white" stroke="#417F56" stroke-width="5" stroke-linejoin="round"/>
<path d="M29.049 88C-1.4285 88 3.5587 79.3333 3.00457 75H53.9852C53.8005 79.3333 56.7559 88 29.049 88Z" fill="white" stroke="#417F56" stroke-width="5" stroke-linejoin="round"/>
<path d="M5 74V65H52V74H5Z" fill="white" stroke="#417F56" stroke-width="4" stroke-linejoin="round"/>
<path d="M22.4348 75L12 66H32L22.4348 75Z" fill="#417F56"/>
<path d="M37.4348 75L27 66H47L37.4348 75Z" fill="#417F56"/>
</svg>
