<svg width="85" height="85" viewBox="0 0 85 85" fill="none" xmlns="http://www.w3.org/2000/svg">
<circle cx="42.5" cy="42.5" r="39" stroke="#417F56" stroke-width="7"/>
<path d="M66.0899 42.3397C66.0898 42.3395 66.0898 42.3394 66.0896 42.3392L57.1052 19.78C56.9145 19.3006 56.3712 19.0666 55.8919 19.2573C55.8915 19.2574 55.8912 19.2576 55.8908 19.2578L19.4421 33.7713C19.2935 33.8356 19.1645 33.9381 19.0684 34.0684C18.7653 34.2259 18.5738 34.5377 18.5706 34.8792V59.1665C18.5706 59.6824 18.9888 60.1007 19.5047 60.1007H58.7381C59.2539 60.1007 59.6722 59.6824 59.6722 59.1665V45.9019L65.5684 43.5535C66.0476 43.3624 66.281 42.8189 66.0899 42.3397ZM57.8039 58.2324H20.4388V35.8133H57.8039V58.2324ZM34.1565 33.9498L49.7975 27.7172C51.1935 29.1845 53.1277 30.0185 55.1529 30.0264L56.7129 33.9498H34.1565ZM59.6722 43.8954V34.8792C59.6722 34.3633 59.2539 33.9451 58.7381 33.9451H58.7231L56.7437 28.9737C56.7217 28.9322 56.6962 28.8927 56.6671 28.856C56.5669 28.4061 56.1503 28.0991 55.6909 28.1367C53.8066 28.3084 51.9632 27.5147 50.7933 26.0274C50.5022 25.6681 49.9905 25.5788 49.5948 25.8182C49.5504 25.8234 49.5064 25.8316 49.4631 25.8425L30.3677 33.4463C30.1366 33.5369 29.9517 33.7166 29.8548 33.9451H24.0558L55.7152 21.339L64.0093 42.1654L59.6722 43.8954Z" fill="#417F56"/>
<path d="M22.9741 51.926C24.7877 52.4621 26.2069 53.8795 26.7452 55.6924C26.8632 56.0882 27.2272 56.3593 27.6401 56.3594C27.6885 56.3564 27.7366 56.3491 27.7839 56.3379C27.8258 56.3498 27.8687 56.3586 27.9119 56.3641H50.331C50.3695 56.3591 50.4076 56.3512 50.4449 56.3407C50.9116 56.4542 51.382 56.168 51.4956 55.7013C51.4959 55.6996 51.4964 55.6979 51.4968 55.6962C52.0337 53.8814 53.4531 52.462 55.2678 51.9251C55.7079 51.7906 55.9814 51.352 55.9086 50.8976C55.9211 50.8523 55.9301 50.806 55.9357 50.7593V43.2863C55.9303 43.2395 55.9209 43.1932 55.9077 43.148C55.9809 42.6935 55.7073 42.2547 55.2669 42.1205C53.4521 41.5837 52.0331 40.1637 51.4977 38.3485C51.3625 37.9054 50.9196 37.6312 50.4627 37.7077C50.4195 37.6956 50.3755 37.6869 50.331 37.6815H27.9119C27.8648 37.6871 27.8183 37.6965 27.7727 37.7095C27.3184 37.6371 26.88 37.9105 26.7452 38.3504C26.2079 40.1648 24.7886 41.5837 22.9741 42.1205C22.534 42.255 22.2605 42.6936 22.3333 43.148C22.3211 43.1935 22.3124 43.2396 22.3071 43.2863V50.7593C22.3125 50.8032 22.3213 50.8467 22.3333 50.8892C22.2567 51.3465 22.5307 51.79 22.9741 51.926ZM24.1754 43.6655C26.0511 42.9122 27.5378 41.4255 28.2912 39.5498H49.9508C50.7045 41.4255 52.1915 42.9122 54.0675 43.6655V50.3801C52.1923 51.1342 50.7059 52.6207 49.9517 54.4958H28.2912C27.537 52.6207 26.0505 51.1342 24.1754 50.3801V43.6655Z" fill="#417F56"/>
<path d="M39.1214 52.6276C42.2168 52.6276 44.7261 50.1183 44.7261 47.0229C44.7261 43.9274 42.2168 41.4181 39.1214 41.4181C36.0259 41.4181 33.5166 43.9274 33.5166 47.0229C33.5196 50.117 36.0272 52.6246 39.1214 52.6276ZM39.1214 43.2863C41.185 43.2863 42.8579 44.9593 42.8579 47.0229C42.8579 49.0865 41.185 50.7594 39.1214 50.7594C37.0578 50.7594 35.3849 49.0865 35.3849 47.0229C35.3849 44.9593 37.0578 43.2863 39.1214 43.2863Z" fill="#417F56"/>
<path d="M28.8459 48.4241C29.6197 48.4241 30.2471 47.7967 30.2471 47.0229C30.2471 46.2491 29.6197 45.6217 28.8459 45.6217C28.0721 45.6217 27.4447 46.2491 27.4447 47.0229C27.4447 47.7968 28.0721 48.4241 28.8459 48.4241ZM28.8459 46.5558C29.1038 46.5558 29.313 46.765 29.313 47.0229C29.313 47.2808 29.1038 47.49 28.8459 47.49C28.588 47.49 28.3788 47.2808 28.3788 47.0229C28.3788 46.765 28.588 46.5558 28.8459 46.5558Z" fill="#417F56"/>
<path d="M49.3968 48.4241C50.1706 48.4241 50.798 47.7967 50.798 47.0229C50.798 46.2491 50.1706 45.6217 49.3968 45.6217C48.623 45.6217 47.9956 46.2491 47.9956 47.0229C47.9956 47.7968 48.623 48.4241 49.3968 48.4241ZM49.3968 46.5558C49.6547 46.5558 49.8639 46.765 49.8639 47.0229C49.8639 47.2808 49.6547 47.49 49.3968 47.49C49.1389 47.49 48.9297 47.2808 48.9297 47.0229C48.9297 46.765 49.1389 46.5558 49.3968 46.5558Z" fill="#417F56"/>
</svg>
