<svg width="85" height="90" viewBox="0 0 85 90" fill="none" xmlns="http://www.w3.org/2000/svg">
<path fill-rule="evenodd" clip-rule="evenodd" d="M42.4528 13C44.662 13 46.4528 14.7909 46.4528 17V36.6024L51.2611 32.0848C52.8711 30.5722 55.4025 30.6511 56.9152 32.2611C58.4278 33.8711 58.3489 36.4025 56.7389 37.9152L45.1917 48.7642C44.0292 49.8565 42.3288 50.1536 40.8647 49.5203C39.4006 48.8869 38.4528 47.4442 38.4528 45.8491V17C38.4528 14.7909 40.2437 13 42.4528 13Z" fill="#417F56"/>
<path fill-rule="evenodd" clip-rule="evenodd" d="M43.1931 76.8979C42.947 76.9031 42.7002 76.9057 42.4528 76.9057C23.4251 76.9057 8 61.4806 8 42.4528C8 23.4251 23.4251 8 42.4528 8C61.4806 8 76.9057 23.4251 76.9057 42.4528C76.9057 46.2933 76.2773 49.9871 75.1177 53.4369C77.5847 55.018 79.703 57.0957 81.3316 59.5289C83.6299 54.3037 84.9057 48.5273 84.9057 42.4528C84.9057 19.0068 65.8989 0 42.4528 0C19.0068 0 0 19.0068 0 42.4528C0 65.8989 19.0068 84.9057 42.4528 84.9057C44.0429 84.9057 45.6125 84.8182 47.1572 84.648C45.3398 82.3977 43.9728 79.7687 43.1931 76.8979Z" fill="#417F56"/>
<path fill-rule="evenodd" clip-rule="evenodd" d="M63.6792 90C73.9955 90 82.3585 81.637 82.3585 71.3208C82.3585 61.0045 73.9955 52.6415 63.6792 52.6415C53.363 52.6415 45 61.0045 45 71.3208C45 81.637 53.363 90 63.6792 90ZM71.0239 80.733C71.9989 80.733 72.9502 80.6316 73.8679 80.4387C71.3651 83.0425 67.8467 84.663 63.9499 84.663C56.3532 84.663 50.1948 78.5047 50.1948 70.908C50.1948 64.2863 54.8738 58.7575 61.1058 57.4474C58.7296 59.9196 57.2688 63.2782 57.2688 66.978C57.2688 74.5747 63.4272 80.733 71.0239 80.733Z" fill="#417F56"/>
</svg>
