<svg width="85" height="85" viewBox="0 0 85 85" fill="none" xmlns="http://www.w3.org/2000/svg">
<circle cx="42.5" cy="42.5" r="39" stroke="#417F56" stroke-width="7"/>
<path d="M50.468 46.7671H36.472C34.3074 46.7671 32.5463 45.006 32.5463 42.8414V39.7691C32.5463 37.6045 34.3074 35.8434 36.472 35.8434H50.468C52.6326 35.8434 54.3937 37.6045 54.3937 39.7691V42.8414C54.3937 45.006 52.6326 46.7671 50.468 46.7671ZM36.472 38.5743C35.8131 38.5743 35.2772 39.1103 35.2772 39.7691V42.8414C35.2772 43.5002 35.8131 44.0362 36.472 44.0362H50.468C51.1268 44.0362 51.6627 43.5002 51.6627 42.8414V39.7691C51.6627 39.1103 51.1268 38.5743 50.468 38.5743H36.472Z" fill="#417F56"/>
<path d="M36.6442 52.9116C35.8901 52.9116 35.2783 52.3002 35.2783 51.5461C35.2783 50.792 35.8892 50.1807 36.6434 50.1807H36.6442C37.3983 50.1807 38.0097 50.792 38.0097 51.5461C38.0097 52.3002 37.3983 52.9116 36.6442 52.9116Z" fill="#417F56"/>
<path d="M43.4716 52.9116C42.7175 52.9116 42.1057 52.3002 42.1057 51.5461C42.1057 50.792 42.7166 50.1807 43.4707 50.1807H43.4716C44.2257 50.1807 44.8371 50.792 44.8371 51.5461C44.8371 52.3002 44.2257 52.9116 43.4716 52.9116Z" fill="#417F56"/>
<path d="M50.2989 52.9116C49.5448 52.9116 48.933 52.3002 48.933 51.5461C48.933 50.792 49.5439 50.1807 50.298 50.1807H50.2989C51.0529 50.1807 51.6643 50.792 51.6643 51.5461C51.6643 52.3002 51.0529 52.9116 50.2989 52.9116Z" fill="#417F56"/>
<path d="M36.6442 58.3735C35.8901 58.3735 35.2783 57.7621 35.2783 57.008C35.2783 56.254 35.8892 55.6426 36.6434 55.6426H36.6442C37.3983 55.6426 38.0097 56.254 38.0097 57.008C38.0097 57.7621 37.3983 58.3735 36.6442 58.3735Z" fill="#417F56"/>
<path d="M43.4716 58.3735C42.7175 58.3735 42.1057 57.7621 42.1057 57.008C42.1057 56.254 42.7166 55.6426 43.4707 55.6426H43.4716C44.2257 55.6426 44.8371 56.254 44.8371 57.008C44.8371 57.7621 44.2257 58.3735 43.4716 58.3735Z" fill="#417F56"/>
<path d="M50.2989 58.3735C49.5448 58.3735 48.933 57.7621 48.933 57.008C48.933 56.254 49.5439 55.6426 50.298 55.6426H50.2989C51.0529 55.6426 51.6643 56.254 51.6643 57.008C51.6643 57.7621 51.0529 58.3735 50.2989 58.3735Z" fill="#417F56"/>
<path d="M54.2229 21.506H32.7169C29.6111 21.506 27.0844 24.0327 27.0844 27.1385V59.5682C27.0844 62.6741 29.6111 65.2008 32.7169 65.2008H54.2229C57.3287 65.2008 59.8554 62.6741 59.8554 59.5682V27.1385C59.8554 24.0327 57.3287 21.506 54.2229 21.506ZM39.3735 24.2369H47.5663V24.9196C47.5663 27.1784 45.7286 29.016 43.4699 29.016C41.2112 29.016 39.3735 27.1784 39.3735 24.9196V24.2369ZM57.1245 59.5682C57.1245 61.1682 55.8229 62.4698 54.2229 62.4698H32.7169C31.1169 62.4698 29.8153 61.1682 29.8153 59.5682V27.1385C29.8153 25.5385 31.1169 24.2369 32.7169 24.2369H36.6426V24.9196C36.6426 28.6842 39.7053 31.7469 43.4699 31.7469C47.2345 31.7469 50.2972 28.6842 50.2972 24.9196V24.2369H54.2229C55.8229 24.2369 57.1245 25.5385 57.1245 27.1385V59.5682Z" fill="#417F56"/>
</svg>
