<svg id="Layer_1" data-name="Layer 1" xmlns="http://www.w3.org/2000/svg" viewBox="0 0 899.72 773.79"><defs><style>.cls-1{fill:#1a3008;}.cls-2{fill:#c8de1b;}.cls-3{fill:#2c500f;}.cls-4{fill:#e6f28d;}.cls-5{fill:#c6d462;}.cls-6{fill:#a5b053;}</style></defs><title>sanvika</title><path class="cls-1" d="M613.49,882.8h0q-4.1,5.64-8.25,11.29C432.42,658.91,352.57,454.85,352.57,386.4c0-65.87,50.13-247,232.31-260.5C583.6,129.05,425.55,521.23,613.49,882.8Z" transform="translate(-41.76 -125.11)"/><path class="cls-2" d="M857.78,386.4c0,65.43-72.8,254.72-230.14,476.67-153.13-337.39,43.62-671.83,73.73-719.69C822.06,193.08,857.78,330.81,857.78,386.4Z" transform="translate(-41.76 -125.11)"/><path class="cls-3" d="M627.64,863.06q-7,9.81-14.15,19.74C425.55,521.23,583.6,129.05,584.88,125.9q9.12-.7,18.67-.79h3.23c36.18.37,67.52,7.1,94.59,18.27C671.26,191.24,474.51,525.66,627.64,863.06Z" transform="translate(-41.76 -125.11)"/><circle class="cls-4" cx="559.38" cy="254.6" r="128.7"/><circle class="cls-5" cx="559.38" cy="254.6" r="103.17"/><circle class="cls-6" cx="559.38" cy="254.6" r="75.31"/><path class="cls-1" d="M571.27,846.58s190-242.28,193.32-246.15,13.82-18.8,11.06-37-13.27-39.82,20.46-76.88,93.74-102.45,93.74-102.45,3.46-5,5.53-3.18-2.35,6.36-3.31,7.74S817,492.72,817,492.72s-6.22,7.19-2.07,10.51,9.26-.83,12-4.84,78-102.31,78-102.31,3.6-5.53,5.26-4.43-2.35,7.33-2.35,7.33L834.27,509.6s-4.28,6.21,0,9.26,8.71-1.11,11.48-5.4,73.42-106.74,73.42-106.74,3.18-5.8,5-4.7-.83,5.81-1.52,6.92-66.36,110.75-66.36,110.75-5.81,8.57-1,11.61S863,529,865.8,525.22s69.68-110.48,69.68-110.48,2.49-5,5-3.87-.28,7.75-1,8.85S871.88,567.46,854.87,578s-28.82,12.24-39.19,13.48-18.5-6.35-37.33,33.19C759.61,664,608.67,898.89,608.67,898.89Z" transform="translate(-41.76 -125.11)"/><path class="cls-1" d="M532.31,679,671.12,504.75s18.81-16,7.19-45.35S660.06,382,721.45,333.31s89-39.82,100.66-29.87,39.82,35.4,0,125S730.3,492.59,717.58,494.8s-23.23,9.95-32.63,24.89-135.5,226.75-135.5,226.75Z" transform="translate(-41.76 -125.11)"/><path class="cls-1" d="M402.44,183.47c-7.16,7-18.57,19-25.62,30.82a3.59,3.59,0,0,1-3.08,1.77h-300a3.56,3.56,0,0,1-2.65-1.18L42.68,183.3a3.56,3.56,0,0,1,2.65-6H400A3.56,3.56,0,0,1,402.44,183.47Z" transform="translate(-41.76 -125.11)"/><path class="cls-1" d="M357.83,244.72c-3.22,7.25-9.59,21.79-12.3,29.08a3.06,3.06,0,0,1-2.88,2H135.9a3.09,3.09,0,0,1-2.13-.85L103.16,245.7a3.07,3.07,0,0,1,2.12-5.3H355A3.07,3.07,0,0,1,357.83,244.72Z" transform="translate(-41.76 -125.11)"/><path class="cls-1" d="M334.91,306.7c-2.13,7.69-6.89,25.15-9,35.25a3,3,0,0,1-2.95,2.42H200.62a3,3,0,0,1-2.13-.88L163,308a3,3,0,0,1,2.13-5.14H332A3,3,0,0,1,334.91,306.7Z" transform="translate(-41.76 -125.11)"/><path class="cls-1" d="M323.61,369c-.35,6.6-.85,22.2,1.62,31.38a2.93,2.93,0,0,1-2.84,3.69H261.91a3,3,0,0,1-2-.78l-35.07-32.27a2.94,2.94,0,0,1,2-5.11h93.84A2.94,2.94,0,0,1,323.61,369Z" transform="translate(-41.76 -125.11)"/></svg>