<svg width="85" height="85" viewBox="0 0 85 85" fill="none" xmlns="http://www.w3.org/2000/svg">
<circle cx="42.5" cy="42.5" r="39" stroke="#417F56" stroke-width="7"/>
<path d="M63.2539 48.0408L59.1953 44.7345C59.3211 43.5806 59.3211 42.4155 59.1953 41.2615L63.2576 37.9534C64.0189 37.3147 64.2223 36.1947 63.7378 35.3103L59.5154 27.7069C59.0291 26.8169 57.9933 26.4283 57.074 26.7908L52.2904 28.7957C51.3915 28.1163 50.4286 27.5338 49.4165 27.0573L48.6824 21.7634C48.55 20.7471 47.713 19.9917 46.7285 20.0001H38.2653C37.2889 19.994 36.4587 20.7409 36.3224 21.7481L35.5865 27.0572C34.5776 27.5383 33.6162 28.1212 32.7164 28.7975L27.9198 26.7888C27.01 26.4152 25.9751 26.7992 25.4968 27.6877L21.2706 35.3045C20.7731 36.1904 20.9779 37.3227 21.7508 37.9592L25.8095 41.2654C25.6824 42.4193 25.6824 43.5845 25.8095 44.7384L21.7471 48.0446C20.9846 48.6824 20.7802 49.803 21.2651 50.6877L25.4857 58.2931C25.9714 59.1837 27.0078 59.5726 27.9272 59.2092L32.7108 57.2043C33.6104 57.8841 34.5739 58.4672 35.5864 58.9447L36.3223 64.2347C36.4519 65.2483 37.2837 66.0041 38.2652 65.9999H46.7284C47.7066 66.0081 48.5395 65.2609 48.6768 64.2519L49.4127 58.9428C50.4216 58.4615 51.3828 57.8786 52.2829 57.2025L57.0848 59.2131C57.9947 59.5858 59.029 59.2021 59.5079 58.3142L63.7469 50.6667C64.2215 49.7835 64.0128 48.6725 63.2539 48.0408ZM42.4968 52.5832C37.4163 52.5832 33.2976 48.2927 33.2976 42.9999C33.2976 37.7071 37.4162 33.4166 42.4968 33.4166C47.5775 33.4166 51.6961 37.7071 51.6961 42.9999C51.6899 48.2901 47.5749 52.577 42.4968 52.5832Z" fill="#417F56"/>
</svg>
